<svg width="34" height="31" viewBox="0 0 34 31" fill="none" xmlns="http://www.w3.org/2000/svg">
<path d="M3.83849 6.49626L7.99737 3.07513C8.14422 2.95358 8.3166 2.85933 8.50451 2.79783C8.69243 2.73634 8.89213 2.70883 9.09203 2.7169C9.29193 2.72497 9.48805 2.76847 9.669 2.84486C9.84995 2.92125 10.0121 3.02901 10.1461 3.1619L13.0158 6.00044C12.8771 6.16158 12.4474 6.53344 11.8929 7.15321L10.1877 9.14888C10.1428 9.1979 10.1055 9.2521 10.0768 9.31002C9.60343 10.0563 9.30848 10.8823 9.21064 11.7358C9.1128 12.5892 9.2142 13.4516 9.50843 14.2682C10.1831 15.9173 11.2523 17.4149 12.6415 18.6561C13.9204 19.9974 15.5419 21.0433 17.3687 21.7054C18.2295 22.0099 19.1592 22.126 20.0804 22.0441C21.0016 21.9621 21.8875 21.6845 22.6644 21.2344L25.021 19.8585C25.7558 19.4247 26.2133 19.0652 26.4073 18.9536L29.277 21.7426C29.4155 21.8723 29.5235 22.0256 29.5945 22.1933C29.6655 22.361 29.6981 22.5398 29.6903 22.719C29.6826 22.8982 29.6346 23.0742 29.5493 23.2365C29.464 23.3988 29.3431 23.5442 29.1938 23.6639L25.0349 27.0974C23.8566 28.0519 21.4306 28.151 18.755 27.4321C16.2282 26.7605 13.918 25.5576 12.0176 23.9242L6.27837 18.4082C4.61774 16.5767 3.46785 14.4184 2.92354 12.1114C2.35516 9.66948 2.66014 7.51268 3.83849 6.49626ZM2.06404 4.83528C-0.209485 6.69459 -0.306525 9.79344 0.358896 12.5948C0.966203 15.3355 2.33973 17.8941 4.35142 20.032L10.0491 25.5852C12.2492 27.5521 14.9734 28.9855 17.9648 29.75C21.0701 30.5929 24.4804 30.7541 26.7539 28.8824L30.9128 25.4612C31.7173 24.7949 32.1949 23.8714 32.2416 22.8917C32.2883 21.9121 31.9004 20.9556 31.1623 20.2304L28.3482 17.4414C27.9885 17.053 27.5048 16.7719 26.9619 16.6357C26.4251 16.5425 25.8688 16.6123 25.3815 16.834C24.7594 17.1594 24.1703 17.5326 23.6209 17.9496L21.2781 19.3379C20.8486 19.599 20.3505 19.7557 19.8328 19.7926C19.3152 19.8295 18.7956 19.7455 18.3253 19.5486C16.891 18.9873 15.62 18.1392 14.61 17.0695C13.493 16.0643 12.624 14.8608 12.0592 13.5368C11.85 13.0271 11.7712 12.4818 11.8288 11.9412C11.8864 11.4007 12.0788 10.8785 12.3919 10.4132L14.0416 8.56629C14.5488 8.10553 15.0125 7.60802 15.4279 7.07884C15.7136 6.6637 15.8357 6.17494 15.7745 5.69056C15.6774 5.18307 15.4061 4.71518 14.9982 4.35186L12.0731 1.62487C11.3278 0.905542 10.295 0.478517 9.19935 0.436731C8.10372 0.394945 7.03396 0.74178 6.22292 1.40175L2.06404 4.83528Z" fill="#1A2E30"/>
<path d="M4.11579 3.11341C3.88588 3.34117 3.75863 3.63708 3.75863 3.9439C3.75863 4.25071 3.88588 4.54662 4.11579 4.77439L9.85504 10.3647C10.1011 10.579 10.4273 10.7039 10.7705 10.7154C11.1137 10.7268 11.4495 10.6239 11.7127 10.4267C11.8394 10.3235 11.9421 10.1989 12.0149 10.0601C12.0878 9.92127 12.1292 9.77099 12.1369 9.61784C12.1447 9.46468 12.1185 9.31168 12.06 9.16758C12.0014 9.02348 11.9117 8.89113 11.7959 8.7781L5.98728 3.18778C5.87147 3.07073 5.7305 2.97571 5.57277 2.90838C5.41505 2.84104 5.24378 2.80277 5.06917 2.79583C4.89456 2.78889 4.72017 2.81343 4.55638 2.86799C4.3926 2.92255 4.24276 3.00601 4.11579 3.11341Z" fill="#1A2E30"/>
<path d="M21.3476 19.8593C21.1177 20.087 20.9904 20.3829 20.9904 20.6897C20.9904 20.9966 21.1177 21.2925 21.3476 21.5202L27.1007 27.1106C27.336 27.339 27.6632 27.4746 28.0103 27.4874C28.3573 27.5002 28.6959 27.3891 28.9514 27.1787C29.2069 26.9683 29.3585 26.6758 29.3728 26.3655C29.3871 26.0551 29.263 25.7524 29.0277 25.524L23.2191 19.9336C23.1033 19.8166 22.9623 19.7216 22.8046 19.6542C22.6468 19.5869 22.4756 19.5486 22.301 19.5417C22.1264 19.5347 21.952 19.5593 21.7882 19.6138C21.6244 19.6684 21.4746 19.7519 21.3476 19.8593Z" fill="#1A2E30"/>
<path d="M22.0387 5.25774C21.8479 5.41552 21.7142 5.62074 21.6548 5.847C21.5954 6.07327 21.613 6.31025 21.7054 6.52748C21.7978 6.74471 21.9608 6.93226 22.1733 7.06604C22.3859 7.19981 22.6383 7.2737 22.8982 7.27819C23.7171 7.31356 24.4871 7.63706 25.0403 8.17812C25.5935 8.71917 25.8849 9.43388 25.851 10.1663C25.8446 10.3193 25.872 10.472 25.9316 10.6155C25.9912 10.7591 26.0819 10.8907 26.1984 11.0029C26.3149 11.1151 26.455 11.2058 26.6106 11.2696C26.7663 11.3334 26.9345 11.3692 27.1056 11.3749C27.2767 11.3806 27.4475 11.3561 27.608 11.3028C27.7685 11.2495 27.9158 11.1684 28.0413 11.0643C28.1668 10.9601 28.2681 10.8349 28.3395 10.6957C28.4109 10.5565 28.4509 10.4061 28.4573 10.2531C28.5046 9.56907 28.3963 8.88359 28.1389 8.23805C27.8816 7.59251 27.4806 7.00032 26.9601 6.49728C25.9312 5.50608 24.5063 4.91807 22.9953 4.86108C22.6304 4.87549 22.2867 5.01803 22.0387 5.25774Z" fill="#1A2E30"/>
<path d="M22.1792 0.385981C22.0116 0.551879 21.9009 0.757396 21.8603 0.978011C21.8197 1.19862 21.851 1.42502 21.9504 1.63018C22.0497 1.83534 22.213 2.01061 22.4208 2.13506C22.6285 2.25951 22.8719 2.3279 23.1219 2.33206C24.2503 2.37348 25.3585 2.61366 26.3829 3.03883C27.4073 3.46401 28.3278 4.06581 29.0915 4.80973C29.8552 5.55365 30.4472 6.42505 30.8335 7.37397C31.2198 8.32289 31.3928 9.33066 31.3426 10.3395C31.3232 10.6603 31.4439 10.9753 31.6793 11.2181C31.9146 11.4609 32.2462 11.6126 32.6041 11.641C32.9718 11.641 33.3244 11.5104 33.5844 11.278C33.8444 11.0455 33.9904 10.7302 33.9904 10.4015C34.0517 9.08519 33.8211 7.77108 33.3121 6.53477C32.8031 5.29847 32.0257 4.16438 31.0245 3.1978C30.0234 2.23122 28.8183 1.45122 27.4787 0.902703C26.1391 0.354188 24.6914 0.0479862 23.2189 0.00172359C23.0245 -0.00774111 22.8302 0.0218622 22.6503 0.0883583C22.4704 0.154854 22.3094 0.256554 22.1792 0.385981Z" fill="#1A2E30"/>
<path d="M19.7508 10.8605C19.6243 10.9646 19.522 11.0901 19.4497 11.2296C19.3774 11.3692 19.3365 11.5201 19.3294 11.6737C19.3223 11.8274 19.3492 11.9808 19.4084 12.1252C19.4676 12.2696 19.5581 12.4021 19.6746 12.5152C19.7911 12.6284 19.9314 12.7199 20.0875 12.7845C20.2435 12.8492 20.4123 12.8857 20.5842 12.8921C20.756 12.8984 20.9276 12.8744 21.0891 12.8214C21.2505 12.7685 21.3988 12.6876 21.5253 12.5834L22.565 11.7281C22.8205 11.5177 22.9721 11.2252 22.9864 10.9149C23.0007 10.6045 22.8766 10.3018 22.6413 10.0734C22.406 9.84488 22.0788 9.70934 21.7317 9.69655C21.3846 9.68377 21.0461 9.79478 20.7906 10.0052L19.7508 10.8605Z" fill="#1A2E30"/>
</svg>
