<svg width="35" height="35" viewBox="0 0 35 35" fill="none" xmlns="http://www.w3.org/2000/svg">
<g clip-path="url(#clip0_0_237)">
<path fill-rule="evenodd" clip-rule="evenodd" d="M2.3375 15.9569L11.975 22.6295L7.8875 26.7281C7.77598 26.8348 7.68686 26.9627 7.62533 27.1043C7.5638 27.2459 7.5311 27.3983 7.52913 27.5526C7.52717 27.7069 7.55598 27.8601 7.61389 28.0032C7.6718 28.1463 7.75764 28.2764 7.86641 28.386C7.97517 28.4955 8.10468 28.5823 8.24737 28.6413C8.39006 28.7003 8.54308 28.7302 8.69748 28.7294C8.85188 28.7287 9.00459 28.6971 9.14667 28.6367C9.28875 28.5763 9.41736 28.4881 9.525 28.3775L13.925 23.9791L16.8375 26.0033C17.0321 26.1382 17.2632 26.2105 17.5 26.2105C17.7368 26.2105 17.9679 26.1382 18.1625 26.0033L21.075 23.9791L25.4625 28.3775C25.5708 28.4858 25.6995 28.5717 25.841 28.6303C25.9826 28.6889 26.1343 28.7191 26.2875 28.7191C26.4407 28.7191 26.5924 28.6889 26.734 28.6303C26.8755 28.5717 27.0042 28.4858 27.1125 28.3775C27.2208 28.2692 27.3068 28.1406 27.3654 27.9991C27.424 27.8576 27.4542 27.7059 27.4542 27.5528C27.4542 27.3996 27.424 27.248 27.3654 27.1064C27.3068 26.9649 27.2208 26.8364 27.1125 26.7281L23.025 22.6295L32.6625 15.9569V28.8023C32.6658 29.3092 32.5686 29.8118 32.3764 30.2809C32.1843 30.7501 31.901 31.1765 31.543 31.5355C31.185 31.8945 30.7594 32.1791 30.2907 32.3727C29.822 32.5663 29.3196 32.6651 28.8125 32.6635H6.25C5.74289 32.6651 5.24048 32.5663 4.77181 32.3727C4.30314 32.1791 3.8775 31.8945 3.5195 31.5355C3.1615 31.1765 2.87824 30.7501 2.68608 30.2809C2.49393 29.8118 2.39669 29.3092 2.4 28.8023L2.3375 15.9569ZM11.25 12.5706C10.9609 12.6006 10.6931 12.7366 10.4984 12.9523C10.3038 13.1681 10.196 13.4484 10.196 13.739C10.196 14.0295 10.3038 14.3098 10.4984 14.5256C10.6931 14.7414 10.9609 14.8774 11.25 14.9073H23.75C23.9136 14.9242 24.079 14.9066 24.2354 14.8556C24.3918 14.8046 24.5358 14.7214 24.6579 14.6112C24.7801 14.5011 24.8778 14.3666 24.9446 14.2163C25.0115 14.066 25.046 13.9034 25.046 13.739C25.046 13.5745 25.0115 13.4119 24.9446 13.2616C24.8778 13.1114 24.7801 12.9768 24.6579 12.8667C24.5358 12.7565 24.3918 12.6733 24.2354 12.6223C24.079 12.5713 23.9136 12.5537 23.75 12.5706H11.25ZM28.75 12.0333L31.7 13.8077L28.75 15.857V12.0333ZM6.25 12.0333V15.782L3.325 13.8077L6.25 12.0333ZM11.1 6.24789C10.7851 6.26777 10.4909 6.41191 10.2823 6.64859C10.0736 6.88527 9.96761 7.1951 9.9875 7.50993C10.0074 7.82477 10.1516 8.1188 10.3883 8.32736C10.6251 8.53592 10.9351 8.64192 11.25 8.62204H17.5C17.8149 8.62204 18.117 8.49697 18.3397 8.27435C18.5624 8.05173 18.6875 7.74979 18.6875 7.43496C18.6875 7.12013 18.5624 6.81819 18.3397 6.59557C18.117 6.37295 17.8149 6.24789 17.5 6.24789H11.1ZM22.425 4.36106L25.0625 7.49744H22.425V4.36106ZM10 2.33678H20.1375V8.74699C20.1375 9.05851 20.2613 9.35727 20.4816 9.57755C20.702 9.79782 21.0009 9.92157 21.3125 9.92157H26.425V17.4939L17.5 23.6167L8.6125 17.4939V3.74878C8.61161 3.57169 8.64659 3.39626 8.71534 3.23305C8.78408 3.06984 8.88517 2.92223 9.0125 2.79912C9.13147 2.65248 9.28212 2.53471 9.45316 2.45463C9.62419 2.37456 9.81115 2.33426 10 2.33678ZM21.25 0.000115754H10C9.00544 0.000115754 8.05161 0.395063 7.34835 1.09807C6.64509 1.80108 6.25 2.75457 6.25 3.74878V9.37177L0.6375 12.7456C0.452106 12.8407 0.29536 12.9834 0.183334 13.1591C0.0713089 13.3348 0.00803481 13.537 0 13.7452V28.8023C0.0164683 30.4485 0.682212 32.0216 1.85253 33.1798C3.02286 34.338 4.60317 34.9877 6.25 34.9876H28.875C30.5001 34.9552 32.0486 34.2912 33.1921 33.1365C34.3356 31.9817 34.9841 30.4271 35 28.8023V13.7452C34.9987 13.521 34.9333 13.3019 34.8115 13.1137C34.6897 12.9255 34.5165 12.7761 34.3125 12.6831L28.75 9.30929V9.04689C28.7982 8.85815 28.797 8.6602 28.7467 8.47203C28.6963 8.28386 28.5985 8.11178 28.4625 7.97227L22.2125 0.474946C22.1043 0.321909 21.9596 0.198313 21.7915 0.115389C21.6235 0.0324647 21.4373 -0.00715981 21.25 0.000115754Z" fill="#1A2E30"/>
</g>
<defs>
<clipPath id="clip0_0_237">
<rect width="35" height="35" fill="white"/>
</clipPath>
</defs>
</svg>
