<svg width="28" height="28" viewBox="0 0 28 28" fill="none" xmlns="http://www.w3.org/2000/svg">
<g clip-path="url(#clip0_0_245)">
<path fill-rule="evenodd" clip-rule="evenodd" d="M18 11.844C18.2159 11.8275 18.4316 11.8782 18.6191 11.9895C18.8067 12.1008 18.9574 12.2675 19.0518 12.4681C19.1462 12.6687 19.1799 12.8939 19.1485 13.1144C19.1171 13.335 19.0221 13.5407 18.8757 13.705C18.7294 13.8692 18.5385 13.9844 18.3278 14.0356C18.1172 14.0868 17.8964 14.0716 17.6942 13.992C17.492 13.9123 17.3178 13.772 17.194 13.5892C17.0702 13.4063 17.0026 13.1894 17 12.9665C16.9917 12.6821 17.0917 12.4056 17.2784 12.1959C17.4652 11.9862 17.7241 11.86 18 11.844ZM18 9.87709C17.4209 9.88729 16.8576 10.0728 16.3802 10.4105C15.9028 10.7482 15.5325 11.2231 15.3154 11.776C15.0984 12.329 15.0442 12.9355 15.1596 13.5199C15.275 14.1044 15.5549 14.6409 15.9645 15.0626C16.374 15.4844 16.895 15.7726 17.4626 15.8915C18.0301 16.0103 18.6191 15.9545 19.156 15.731C19.693 15.5075 20.1541 15.1261 20.482 14.6345C20.81 14.1429 20.9901 13.5628 21 12.9665C21 12.1471 20.6839 11.3613 20.1213 10.7819C19.5587 10.2026 18.7956 9.87709 18 9.87709ZM18 8.70313C18.5442 8.69758 19.0841 8.80421 19.5877 9.01676C20.0913 9.2293 20.5485 9.54346 20.9324 9.94073C21.3163 10.338 21.6192 10.8104 21.8231 11.33C22.0271 11.8496 22.128 12.406 22.12 12.9665C22.005 14.6315 21.541 16.2511 20.76 17.7138C20.3985 18.4301 19.9256 19.0806 19.36 19.6395C19.0069 20.0193 18.5293 20.2505 18.02 20.2883C17.5127 20.254 17.0371 20.022 16.69 19.6395C16.1244 19.0806 15.6515 18.4301 15.29 17.7138C14.5045 16.253 14.0402 14.6324 13.93 12.9665C13.926 12.4135 14.0284 11.8651 14.2312 11.3531C14.4339 10.841 14.7331 10.3753 15.1114 9.98281C15.4897 9.59034 15.9398 9.27885 16.4355 9.06629C16.9313 8.85373 17.463 8.74431 18 8.74432V8.70313ZM11 2.22575L15.47 3.77044C16.0071 3.94655 16.5598 4.06729 17.12 4.13086V6.901C15.7297 7.14296 14.4665 7.88143 13.5522 8.98682C12.6379 10.0922 12.1308 11.4939 12.12 12.9459C12.2054 14.9404 12.7504 16.8853 13.71 18.62C14.1674 19.5295 14.7728 20.3515 15.5 21.0503C15.9756 21.4944 16.5383 21.828 17.15 22.0286V23.5939C17.15 23.7197 17.1741 23.8442 17.2208 23.9604C17.2675 24.0766 17.336 24.1822 17.4224 24.2711C17.5087 24.36 17.6113 24.4306 17.7241 24.4787C17.8369 24.5268 17.9579 24.5516 18.08 24.5516C18.2021 24.5516 18.3231 24.5268 18.4359 24.4787C18.5487 24.4306 18.6513 24.36 18.7376 24.2711C18.824 24.1822 18.8925 24.0766 18.9392 23.9604C18.9859 23.8442 19.01 23.7197 19.01 23.5939V22.0286C19.6235 21.8323 20.1871 21.4982 20.66 21.0503C21.3903 20.352 21.9991 19.53 22.46 18.62C23.3952 16.8853 23.9227 14.949 24 12.9665C23.9962 11.5092 23.4923 10.1001 22.5774 8.98834C21.6625 7.87655 20.3954 7.13358 19 6.8907V4.14116C19.5606 4.0741 20.1133 3.94991 20.65 3.77044L25.17 2.21545C25.285 2.17353 25.4081 2.16111 25.5288 2.17927C25.6495 2.19744 25.7641 2.24563 25.8626 2.31969C25.9611 2.39374 26.0406 2.49142 26.0941 2.60425C26.1477 2.71708 26.1737 2.84166 26.17 2.9672V21.905C26.1699 22.4135 26.0143 22.9089 25.7253 23.3212C25.4363 23.7334 25.0286 24.0414 24.56 24.2015L20 25.7462C18.7017 26.1914 17.2983 26.1914 16 25.7462L11.53 24.2015C10.9951 24.019 10.4414 23.9014 9.88 23.8513V5.31512C9.8778 5.07158 9.78558 4.83805 9.6221 4.66205C9.45862 4.48605 9.23617 4.3808 9 4.36772C8.87748 4.36769 8.75619 4.39286 8.64325 4.44175C8.53031 4.49065 8.42798 4.56228 8.34229 4.65245C8.25659 4.74261 8.18925 4.8495 8.14421 4.96683C8.09917 5.08417 8.07734 5.20958 8.08 5.33572V23.8719C7.50632 23.9469 6.94273 24.0886 6.4 24.2942L2.82 25.6844C2.71104 25.7451 2.58802 25.7741 2.46424 25.7681C2.34046 25.7621 2.22062 25.7214 2.11767 25.6504C2.01473 25.5793 1.93258 25.4807 1.88012 25.3651C1.82766 25.2495 1.80687 25.1213 1.82 24.9944V6.07717C1.82985 5.55267 1.99507 5.04379 2.29353 4.61865C2.59199 4.19352 3.00944 3.87242 3.49 3.69835L7.05 2.29784C7.67342 2.05458 8.33338 1.92562 9 1.91682C9.67884 1.90252 10.3551 2.00698 11 2.22575ZM9 0.00140527C8.11119 0.0100467 7.2309 0.180889 6.4 0.506003L2.82 1.87562C1.99106 2.19791 1.27714 2.77264 0.773344 3.52325C0.269549 4.27385 -0.000209097 5.16472 1.21606e-07 6.07717V24.9944C0.00590057 25.4221 0.110826 25.8421 0.306059 26.2196C0.501291 26.5971 0.781191 26.9212 1.1225 27.1649C1.46381 27.4087 1.85667 27.565 2.26844 27.6209C2.68021 27.6768 3.099 27.6308 3.49 27.4865L7.05 26.1066C8.31866 25.6142 9.71302 25.5851 11 26.0242L15.47 27.5689C17.146 28.1356 18.954 28.1356 20.63 27.5689L25.15 26.0242C25.9878 25.7337 26.7162 25.1801 27.2328 24.4412C27.7494 23.7024 28.0282 22.8155 28.03 21.905V2.9672C28.0247 2.53895 27.9221 2.11794 27.7302 1.73797C27.5383 1.358 27.2626 1.02966 26.9251 0.779305C26.5877 0.528953 26.1979 0.363568 25.7872 0.296431C25.3764 0.229294 24.9561 0.262275 24.56 0.392725L20 1.94771C18.7017 2.39294 17.2983 2.39294 16 1.94771L11.56 0.403023C10.735 0.120313 9.8693 -0.0155052 9 0.00140527Z" fill="#1A2E30"/>
</g>
<defs>
<clipPath id="clip0_0_245">
<rect width="28" height="28" fill="white"/>
</clipPath>
</defs>
</svg>
