<svg width="255" height="155" viewBox="0 0 255 155" fill="none" xmlns="http://www.w3.org/2000/svg">
<path d="M150.602 45.3135C149.904 44.4795 148.906 44.0625 147.607 44.0625C145.83 44.0625 144.62 44.7256 143.978 46.0518C143.608 46.8174 143.39 48.0342 143.321 49.7021H137.641C137.736 47.1729 138.194 45.1289 139.015 43.5703C140.573 40.6035 143.342 39.1201 147.32 39.1201C150.465 39.1201 152.967 39.9951 154.826 41.7451C156.686 43.4814 157.615 45.7852 157.615 48.6562C157.615 50.8574 156.959 52.8125 155.646 54.5215C154.785 55.6562 153.37 56.9209 151.401 58.3154L149.063 59.9766C147.601 61.0156 146.596 61.7676 146.049 62.2324C145.516 62.6973 145.064 63.2373 144.695 63.8525H157.677V69H137.312C137.367 66.8672 137.825 64.9189 138.687 63.1553C139.521 61.1729 141.489 59.0742 144.593 56.8594C147.286 54.9316 149.029 53.5508 149.822 52.7168C151.039 51.418 151.647 49.9961 151.647 48.4512C151.647 47.1934 151.299 46.1475 150.602 45.3135Z" fill="#FEE074"/>
<path d="M174.4 69.5C171.833 69.5 169.533 68.9167 167.5 67.75C165.5 66.55 163.917 64.9333 162.75 62.9C161.583 60.8333 161 58.4833 161 55.85C161 53.2167 161.583 50.8833 162.75 48.85C163.917 46.7833 165.5 45.1667 167.5 44C169.533 42.8 171.833 42.2 174.4 42.2C176.933 42.2 179.2 42.8 181.2 44C183.233 45.1667 184.833 46.7833 186 48.85C187.167 50.8833 187.75 53.2167 187.75 55.85C187.75 58.4833 187.167 60.8333 186 62.9C184.833 64.9333 183.233 66.55 181.2 67.75C179.2 68.9167 176.933 69.5 174.4 69.5ZM174.4 64.8C175.967 64.8 177.367 64.4167 178.6 63.65C179.833 62.85 180.8 61.7833 181.5 60.45C182.2 59.0833 182.533 57.55 182.5 55.85C182.533 54.1167 182.2 52.5833 181.5 51.25C180.8 49.8833 179.833 48.8167 178.6 48.05C177.367 47.2833 175.967 46.9 174.4 46.9C172.833 46.9 171.417 47.3 170.15 48.1C168.917 48.8667 167.95 49.9333 167.25 51.3C166.55 52.6333 166.217 54.15 166.25 55.85C166.217 57.55 166.55 59.0833 167.25 60.45C167.95 61.7833 168.917 62.85 170.15 63.65C171.417 64.4167 172.833 64.8 174.4 64.8ZM193.835 69L184.885 42.75L190.085 42.7L196.485 62.35L195.335 62.25L202.285 46.9H205.385L212.385 62.3L211.035 62.4L217.485 42.75H222.685L213.835 69H210.285L202.985 52.3L204.135 52.45L197.335 69H193.835ZM222.375 69V42.75H227.525V48.15L226.625 48.75C226.959 47.5833 227.609 46.5167 228.575 45.55C229.542 44.55 230.692 43.75 232.025 43.15C233.359 42.5167 234.725 42.2 236.125 42.2C238.125 42.2 239.792 42.6 241.125 43.4C242.459 44.1667 243.459 45.35 244.125 46.95C244.792 48.55 245.125 50.5667 245.125 53V69H239.975V53.35C239.975 51.85 239.775 50.6167 239.375 49.65C238.975 48.65 238.359 47.9333 237.525 47.5C236.692 47.0333 235.659 46.8333 234.425 46.9C233.425 46.9 232.509 47.0667 231.675 47.4C230.842 47.7 230.109 48.1333 229.475 48.7C228.875 49.2667 228.392 49.9333 228.025 50.7C227.692 51.4333 227.525 52.2333 227.525 53.1V69H224.975C224.542 69 224.109 69 223.675 69C223.242 69 222.809 69 222.375 69Z" fill="white"/>
<path d="M3.5 68V41.75H8.7V47.35L7.75 47.95C8.01667 47.0833 8.43333 46.25 9 45.45C9.6 44.65 10.3167 43.95 11.15 43.35C12.0167 42.7167 12.9333 42.2167 13.9 41.85C14.9 41.4833 15.9167 41.3 16.95 41.3C18.45 41.3 19.7667 41.55 20.9 42.05C22.0333 42.55 22.9667 43.3 23.7 44.3C24.4333 45.3 24.9667 46.55 25.3 48.05L24.5 47.85L24.85 47C25.2167 46.2333 25.7167 45.5167 26.35 44.85C27.0167 44.15 27.7667 43.5333 28.6 43C29.4333 42.4667 30.3167 42.05 31.25 41.75C32.1833 41.45 33.1 41.3 34 41.3C35.9667 41.3 37.5833 41.7 38.85 42.5C40.15 43.3 41.1167 44.5167 41.75 46.15C42.4167 47.7833 42.75 49.8167 42.75 52.25V68H37.55V52.55C37.55 51.05 37.35 49.8333 36.95 48.9C36.5833 47.9333 36.0167 47.2167 35.25 46.75C34.4833 46.2833 33.5 46.05 32.3 46.05C31.3667 46.05 30.4833 46.2167 29.65 46.55C28.85 46.85 28.15 47.2833 27.55 47.85C26.95 48.4167 26.4833 49.0833 26.15 49.85C25.8167 50.5833 25.65 51.4 25.65 52.3V68H20.45V52.45C20.45 51.0833 20.25 49.9333 19.85 49C19.45 48.0333 18.8667 47.3 18.1 46.8C17.3333 46.3 16.4 46.05 15.3 46.05C14.3667 46.05 13.5 46.2167 12.7 46.55C11.9 46.85 11.2 47.2833 10.6 47.85C10 48.3833 9.53333 49.0333 9.2 49.8C8.86667 50.5333 8.7 51.3333 8.7 52.2V68H3.5ZM56.8949 68.5C54.1949 68.5 51.7949 67.9333 49.6949 66.8C47.6283 65.6333 45.9949 64.05 44.7949 62.05C43.6283 60.05 43.0449 57.75 43.0449 55.15C43.0449 53.0833 43.3783 51.2 44.0449 49.5C44.7116 47.8 45.6283 46.3333 46.7949 45.1C47.9949 43.8333 49.4116 42.8667 51.0449 42.2C52.7116 41.5 54.5116 41.15 56.4449 41.15C58.1449 41.15 59.7283 41.4833 61.1949 42.15C62.6616 42.7833 63.9283 43.6667 64.9949 44.8C66.0949 45.9333 66.9283 47.2833 67.4949 48.85C68.0949 50.3833 68.3783 52.0667 68.3449 53.9L68.2949 56.1H46.8449L45.6949 52H63.8449L63.0949 52.85V51.65C62.9949 50.55 62.6283 49.5667 61.9949 48.7C61.3616 47.8333 60.5616 47.15 59.5949 46.65C58.6283 46.15 57.5783 45.9 56.4449 45.9C54.6449 45.9 53.1283 46.25 51.8949 46.95C50.6616 47.6167 49.7283 48.6167 49.0949 49.95C48.4616 51.25 48.1449 52.8667 48.1449 54.8C48.1449 56.6333 48.5283 58.2333 49.2949 59.6C50.0616 60.9333 51.1449 61.9667 52.5449 62.7C53.9449 63.4333 55.5616 63.8 57.3949 63.8C58.6949 63.8 59.8949 63.5833 60.9949 63.15C62.1283 62.7167 63.3449 61.9333 64.6449 60.8L67.2449 64.45C66.4449 65.25 65.4616 65.95 64.2949 66.55C63.1616 67.15 61.9449 67.6333 60.6449 68C59.3783 68.3333 58.1283 68.5 56.8949 68.5ZM68.9418 68V41.75H74.1418V50L73.6418 48C74.0085 46.7333 74.6251 45.5833 75.4918 44.55C76.3918 43.5167 77.4085 42.7 78.5418 42.1C79.7085 41.5 80.9085 41.2 82.1418 41.2C82.7085 41.2 83.2418 41.25 83.7418 41.35C84.2751 41.45 84.6918 41.5667 84.9918 41.7L83.6418 47.3C83.2418 47.1333 82.7918 47 82.2918 46.9C81.8251 46.7667 81.3585 46.7 80.8918 46.7C79.9918 46.7 79.1251 46.8833 78.2918 47.25C77.4918 47.5833 76.7751 48.0667 76.1418 48.7C75.5418 49.3 75.0585 50.0167 74.6918 50.85C74.3251 51.65 74.1418 52.5333 74.1418 53.5V68H68.9418ZM95.1254 79.5C93.2587 79.5 91.3921 79.2 89.5254 78.6C87.6921 78.0333 86.2087 77.2833 85.0754 76.35L86.9754 72.35C87.6421 72.85 88.4254 73.2833 89.3254 73.65C90.2254 74.05 91.1754 74.35 92.1754 74.55C93.1754 74.7833 94.1587 74.9 95.1254 74.9C96.9587 74.9 98.4921 74.6 99.7254 74C100.959 73.4 101.892 72.5167 102.525 71.35C103.159 70.1833 103.475 68.7333 103.475 67V61.95L104.025 62.3C103.859 63.3333 103.309 64.3333 102.375 65.3C101.475 66.2333 100.342 67 98.9754 67.6C97.6087 68.2 96.2087 68.5 94.7754 68.5C92.2754 68.5 90.0421 67.9167 88.0754 66.75C86.1421 65.55 84.6087 63.9333 83.4754 61.9C82.3421 59.8333 81.7754 57.4833 81.7754 54.85C81.7754 52.2167 82.3254 49.8833 83.4254 47.85C84.5587 45.7833 86.0921 44.1667 88.0254 43C89.9921 41.8 92.1921 41.2 94.6254 41.2C95.6254 41.2 96.5921 41.3333 97.5254 41.6C98.4587 41.8333 99.3254 42.1833 100.125 42.65C100.925 43.0833 101.642 43.5667 102.275 44.1C102.909 44.6333 103.425 45.2 103.825 45.8C104.225 46.4 104.475 46.9667 104.575 47.5L103.475 47.9V41.75H108.625V66.4C108.625 68.5 108.309 70.35 107.675 71.95C107.075 73.5833 106.192 74.95 105.025 76.05C103.859 77.1833 102.442 78.0333 100.775 78.6C99.1087 79.2 97.2254 79.5 95.1254 79.5ZM95.3254 63.75C96.9587 63.75 98.4087 63.3667 99.6754 62.6C100.942 61.8333 101.925 60.7833 102.625 59.45C103.325 58.1167 103.675 56.5833 103.675 54.85C103.675 53.1167 103.309 51.5833 102.575 50.25C101.875 48.8833 100.892 47.8167 99.6254 47.05C98.3921 46.2833 96.9587 45.9 95.3254 45.9C93.7254 45.9 92.2921 46.3 91.0254 47.1C89.7921 47.8667 88.8087 48.9333 88.0754 50.3C87.3754 51.6333 87.0254 53.15 87.0254 54.85C87.0254 56.55 87.3754 58.0833 88.0754 59.45C88.8087 60.7833 89.7921 61.8333 91.0254 62.6C92.2921 63.3667 93.7254 63.75 95.3254 63.75ZM123.096 68.5C120.396 68.5 117.996 67.9333 115.896 66.8C113.829 65.6333 112.196 64.05 110.996 62.05C109.829 60.05 109.246 57.75 109.246 55.15C109.246 53.0833 109.579 51.2 110.246 49.5C110.913 47.8 111.829 46.3333 112.996 45.1C114.196 43.8333 115.613 42.8667 117.246 42.2C118.913 41.5 120.713 41.15 122.646 41.15C124.346 41.15 125.929 41.4833 127.396 42.15C128.863 42.7833 130.129 43.6667 131.196 44.8C132.296 45.9333 133.129 47.2833 133.696 48.85C134.296 50.3833 134.579 52.0667 134.546 53.9L134.496 56.1H113.046L111.896 52H130.046L129.296 52.85V51.65C129.196 50.55 128.829 49.5667 128.196 48.7C127.563 47.8333 126.763 47.15 125.796 46.65C124.829 46.15 123.779 45.9 122.646 45.9C120.846 45.9 119.329 46.25 118.096 46.95C116.863 47.6167 115.929 48.6167 115.296 49.95C114.663 51.25 114.346 52.8667 114.346 54.8C114.346 56.6333 114.729 58.2333 115.496 59.6C116.263 60.9333 117.346 61.9667 118.746 62.7C120.146 63.4333 121.763 63.8 123.596 63.8C124.896 63.8 126.096 63.5833 127.196 63.15C128.329 62.7167 129.546 61.9333 130.846 60.8L133.446 64.45C132.646 65.25 131.663 65.95 130.496 66.55C129.363 67.15 128.146 67.6333 126.846 68C125.579 68.3333 124.329 68.5 123.096 68.5Z" fill="white"/>
<path d="M59.9989 21.1719V2.00088C59.9989 0.895995 59.1038 0.000931104 57.9989 0.000931104H49.9991C48.8942 0.000931104 47.9991 0.895995 47.9991 2.00088V9.17257L39.4139 0.586347C38.6332 -0.195449 37.3659 -0.195449 36.5858 0.586347L4.58635 32.5856C3.80455 33.3674 3.80455 34.633 4.58635 35.4137C5.36702 36.1954 6.63431 36.1954 7.41444 35.4137L37.9996 4.82867L48.5848 15.4138C49.1568 15.9864 50.0178 16.1571 50.7639 15.8474C51.5122 15.5388 51.9994 14.809 51.9994 14.0003V4.00058H55.9993V22.0001C55.9993 22.5303 56.2097 23.0392 56.5847 23.4147L68.5845 35.4144C68.9751 35.8045 69.4868 35.9998 69.9991 35.9998C70.5113 35.9998 71.023 35.8045 71.4137 35.4144C72.1954 34.6326 72.1954 33.3671 71.4137 32.5864L59.9989 21.1719Z" fill="#FEE074"/>
</svg>
