<svg width="40" height="41" viewBox="0 0 40 41" fill="none" xmlns="http://www.w3.org/2000/svg">
<path d="M20 0.5C22.7604 0.5 25.3646 1.02083 27.8125 2.0625C30.2604 3.10417 32.3698 4.53646 34.1406 6.35938C35.9635 8.13021 37.3958 10.2396 38.4375 12.6875C39.4792 15.1354 40 17.7396 40 20.5C40 23.2604 39.4792 25.8646 38.4375 28.3125C37.3958 30.7604 35.9635 32.8958 34.1406 34.7188C32.3698 36.4896 30.2604 37.8958 27.8125 38.9375C25.3646 39.9792 22.7604 40.5 20 40.5C17.2396 40.5 14.6354 39.9792 12.1875 38.9375C9.73958 37.8958 7.60417 36.4896 5.78125 34.7188C4.01042 32.8958 2.60417 30.7604 1.5625 28.3125C0.520833 25.8646 0 23.2604 0 20.5C0 17.7396 0.520833 15.1354 1.5625 12.6875C2.60417 10.2396 4.01042 8.13021 5.78125 6.35938C7.60417 4.53646 9.73958 3.10417 12.1875 2.0625C14.6354 1.02083 17.2396 0.5 20 0.5ZM31.7188 14.7969C32.2396 14.3281 32.5 13.7292 32.5 13C32.5 12.3229 32.2396 11.75 31.7188 11.2812C31.25 10.7604 30.6771 10.5 30 10.5C29.3229 10.5 28.75 10.7344 28.2812 11.2031L14.5312 24.5625L9.21875 19.6406C8.75 19.1719 8.17708 18.9375 7.5 18.9375C6.82292 18.9375 6.22396 19.1979 5.70312 19.7188C5.23438 20.1875 5 20.7604 5 21.4375C5 22.2188 5.26042 22.8438 5.78125 23.3125L12.8906 29.7969C13.3594 30.2656 13.9062 30.5 14.5312 30.5C15.2083 30.5 15.8073 30.2656 16.3281 29.7969L31.7188 14.7969Z" fill="#24694F"/>
</svg>
