<svg width="330" height="21" viewBox="0 0 330 21" fill="none" xmlns="http://www.w3.org/2000/svg">
<path d="M324.314 12.2631C312.22 9.71215 299.078 9.64826 286.944 8.81646C273.725 7.79786 260.264 6.89477 246.998 6.18196C219.597 4.60686 192.366 3.37491 165.088 2.44874C111.401 0.745858 57.1638 -0.267292 4.3905 2.26653C-1.68444 2.63377 -0.252797 9.31328 5.99264 9.28919C58.9971 9.6195 111.684 9.11062 164.913 10.8917C190.864 11.7466 216.745 13.0601 242.602 14.5266C255.845 15.3923 269.305 16.2954 282.548 17.1611C296.226 18.1015 311.019 20.4893 324.449 20.1318C330.912 20.1451 330.566 13.6524 324.314 12.2631Z" fill="#FEE074"/>
</svg>
